<mxfile host="app.diagrams.net" agent="Mozilla/5.0 (Windows NT 10.0; Win64; x64) AppleWebKit/537.36 (KHTML, like Gecko) Chrome/134.0.0.0 Safari/537.36" version="26.1.0">
  <diagram name="Page-1" id="YTQbtiGuhkkcihc2sV-r">
    <mxGraphModel dx="1354" dy="600" grid="1" gridSize="10" guides="1" tooltips="1" connect="1" arrows="1" fold="1" page="1" pageScale="1" pageWidth="827" pageHeight="1169" math="0" shadow="0">
      <root>
        <mxCell id="0" />
        <mxCell id="1" parent="0" />
        <mxCell id="vzcYkedEycCVn6IqwDVd-1" value="" style="rounded=0;whiteSpace=wrap;html=1;" vertex="1" parent="1">
          <mxGeometry x="200" y="40" width="460" height="560" as="geometry" />
        </mxCell>
        <mxCell id="vzcYkedEycCVn6IqwDVd-2" value="Lovski čuvaj" style="shape=umlActor;verticalLabelPosition=bottom;verticalAlign=top;html=1;outlineConnect=0;" vertex="1" parent="1">
          <mxGeometry x="50" y="110" width="30" height="60" as="geometry" />
        </mxCell>
        <mxCell id="vzcYkedEycCVn6IqwDVd-3" value="Starešina" style="shape=umlActor;verticalLabelPosition=bottom;verticalAlign=top;html=1;outlineConnect=0;" vertex="1" parent="1">
          <mxGeometry x="50" y="350" width="30" height="60" as="geometry" />
        </mxCell>
        <mxCell id="vzcYkedEycCVn6IqwDVd-4" value="Gospodar" style="shape=umlActor;verticalLabelPosition=bottom;verticalAlign=top;html=1;outlineConnect=0;" vertex="1" parent="1">
          <mxGeometry x="50" y="230" width="30" height="60" as="geometry" />
        </mxCell>
        <mxCell id="vzcYkedEycCVn6IqwDVd-5" value="Skrbnik LČS" style="shape=umlActor;verticalLabelPosition=bottom;verticalAlign=top;html=1;outlineConnect=0;" vertex="1" parent="1">
          <mxGeometry x="50" y="470" width="30" height="60" as="geometry" />
        </mxCell>
        <mxCell id="vzcYkedEycCVn6IqwDVd-6" value="Urejanje šifranta kategorizacije" style="ellipse;whiteSpace=wrap;html=1;" vertex="1" parent="1">
          <mxGeometry x="305" y="520" width="100" height="60" as="geometry" />
        </mxCell>
        <mxCell id="vzcYkedEycCVn6IqwDVd-7" value="Izpolnitev obrazca" style="ellipse;whiteSpace=wrap;html=1;" vertex="1" parent="1">
          <mxGeometry x="440" y="100" width="85" height="50" as="geometry" />
        </mxCell>
        <mxCell id="vzcYkedEycCVn6IqwDVd-8" value="" style="endArrow=classic;html=1;rounded=0;exitX=1;exitY=0.3333333333333333;exitDx=0;exitDy=0;exitPerimeter=0;entryX=0;entryY=0.5;entryDx=0;entryDy=0;" edge="1" parent="1" source="vzcYkedEycCVn6IqwDVd-2" target="vzcYkedEycCVn6IqwDVd-7">
          <mxGeometry width="50" height="50" relative="1" as="geometry">
            <mxPoint x="390" y="340" as="sourcePoint" />
            <mxPoint x="440" y="290" as="targetPoint" />
          </mxGeometry>
        </mxCell>
        <mxCell id="vzcYkedEycCVn6IqwDVd-11" value="" style="endArrow=classic;html=1;rounded=0;exitX=1;exitY=0.3333333333333333;exitDx=0;exitDy=0;exitPerimeter=0;entryX=0;entryY=0.5;entryDx=0;entryDy=0;" edge="1" parent="1" source="vzcYkedEycCVn6IqwDVd-5" target="vzcYkedEycCVn6IqwDVd-6">
          <mxGeometry width="50" height="50" relative="1" as="geometry">
            <mxPoint x="90" y="490" as="sourcePoint" />
            <mxPoint x="440" y="290" as="targetPoint" />
          </mxGeometry>
        </mxCell>
        <mxCell id="vzcYkedEycCVn6IqwDVd-12" value="Pregled obrazca" style="ellipse;whiteSpace=wrap;html=1;" vertex="1" parent="1">
          <mxGeometry x="380" y="430" width="85" height="50" as="geometry" />
        </mxCell>
        <mxCell id="vzcYkedEycCVn6IqwDVd-14" value="" style="endArrow=classic;html=1;rounded=0;exitX=1;exitY=0.3333333333333333;exitDx=0;exitDy=0;exitPerimeter=0;entryX=0;entryY=0.5;entryDx=0;entryDy=0;" edge="1" parent="1" source="vzcYkedEycCVn6IqwDVd-4" target="vzcYkedEycCVn6IqwDVd-12">
          <mxGeometry width="50" height="50" relative="1" as="geometry">
            <mxPoint x="390" y="340" as="sourcePoint" />
            <mxPoint x="440" y="290" as="targetPoint" />
          </mxGeometry>
        </mxCell>
        <mxCell id="vzcYkedEycCVn6IqwDVd-15" value="Potrditev obrazca" style="ellipse;whiteSpace=wrap;html=1;" vertex="1" parent="1">
          <mxGeometry x="270" y="450" width="80" height="50" as="geometry" />
        </mxCell>
        <mxCell id="vzcYkedEycCVn6IqwDVd-17" value="" style="endArrow=classic;html=1;rounded=0;exitX=1;exitY=0.3333333333333333;exitDx=0;exitDy=0;exitPerimeter=0;entryX=0;entryY=0.5;entryDx=0;entryDy=0;" edge="1" parent="1" source="vzcYkedEycCVn6IqwDVd-4" target="vzcYkedEycCVn6IqwDVd-15">
          <mxGeometry width="50" height="50" relative="1" as="geometry">
            <mxPoint x="90" y="380" as="sourcePoint" />
            <mxPoint x="306" y="287" as="targetPoint" />
          </mxGeometry>
        </mxCell>
        <mxCell id="vzcYkedEycCVn6IqwDVd-18" value="Spletna aplikacija" style="text;html=1;align=center;verticalAlign=middle;whiteSpace=wrap;rounded=0;" vertex="1" parent="1">
          <mxGeometry x="200" y="10" width="110" height="30" as="geometry" />
        </mxCell>
        <mxCell id="vzcYkedEycCVn6IqwDVd-19" value="" style="endArrow=classic;html=1;rounded=0;exitX=0.5;exitY=0;exitDx=0;exitDy=0;exitPerimeter=0;" edge="1" parent="1" source="vzcYkedEycCVn6IqwDVd-3" target="vzcYkedEycCVn6IqwDVd-4">
          <mxGeometry width="50" height="50" relative="1" as="geometry">
            <mxPoint x="390" y="320" as="sourcePoint" />
            <mxPoint x="440" y="270" as="targetPoint" />
          </mxGeometry>
        </mxCell>
        <mxCell id="vzcYkedEycCVn6IqwDVd-20" value="Prijava v aplikacijo" style="ellipse;whiteSpace=wrap;html=1;" vertex="1" parent="1">
          <mxGeometry x="324" y="250" width="90" height="50" as="geometry" />
        </mxCell>
        <mxCell id="vzcYkedEycCVn6IqwDVd-21" value="Odjava iz aplikacije" style="ellipse;whiteSpace=wrap;html=1;" vertex="1" parent="1">
          <mxGeometry x="290" y="320" width="90" height="50" as="geometry" />
        </mxCell>
        <mxCell id="vzcYkedEycCVn6IqwDVd-22" value="" style="endArrow=classic;html=1;rounded=0;entryX=0;entryY=0;entryDx=0;entryDy=0;" edge="1" parent="1" target="vzcYkedEycCVn6IqwDVd-20">
          <mxGeometry width="50" height="50" relative="1" as="geometry">
            <mxPoint x="80" y="130" as="sourcePoint" />
            <mxPoint x="310" y="220" as="targetPoint" />
          </mxGeometry>
        </mxCell>
        <mxCell id="vzcYkedEycCVn6IqwDVd-23" value="" style="endArrow=classic;html=1;rounded=0;entryX=0.078;entryY=0.2;entryDx=0;entryDy=0;entryPerimeter=0;" edge="1" parent="1" target="vzcYkedEycCVn6IqwDVd-21">
          <mxGeometry width="50" height="50" relative="1" as="geometry">
            <mxPoint x="80" y="130" as="sourcePoint" />
            <mxPoint x="440" y="260" as="targetPoint" />
          </mxGeometry>
        </mxCell>
        <mxCell id="vzcYkedEycCVn6IqwDVd-24" value="Pregled fotografij" style="ellipse;whiteSpace=wrap;html=1;" vertex="1" parent="1">
          <mxGeometry x="265" y="170" width="85" height="50" as="geometry" />
        </mxCell>
        <mxCell id="vzcYkedEycCVn6IqwDVd-25" value="" style="endArrow=classic;html=1;rounded=0;exitX=1;exitY=0.3333333333333333;exitDx=0;exitDy=0;exitPerimeter=0;entryX=0;entryY=0.5;entryDx=0;entryDy=0;" edge="1" parent="1" source="vzcYkedEycCVn6IqwDVd-2" target="vzcYkedEycCVn6IqwDVd-24">
          <mxGeometry width="50" height="50" relative="1" as="geometry">
            <mxPoint x="390" y="340" as="sourcePoint" />
            <mxPoint x="440" y="290" as="targetPoint" />
          </mxGeometry>
        </mxCell>
        <mxCell id="vzcYkedEycCVn6IqwDVd-27" value="" style="endArrow=classic;html=1;rounded=0;exitX=1;exitY=0.3333333333333333;exitDx=0;exitDy=0;exitPerimeter=0;entryX=0;entryY=0.5;entryDx=0;entryDy=0;" edge="1" parent="1" source="vzcYkedEycCVn6IqwDVd-2" target="vzcYkedEycCVn6IqwDVd-26">
          <mxGeometry width="50" height="50" relative="1" as="geometry">
            <mxPoint x="390" y="340" as="sourcePoint" />
            <mxPoint x="440" y="290" as="targetPoint" />
          </mxGeometry>
        </mxCell>
        <mxCell id="vzcYkedEycCVn6IqwDVd-28" value="" style="endArrow=none;html=1;rounded=0;exitX=0.953;exitY=0.38;exitDx=0;exitDy=0;entryX=0;entryY=1;entryDx=0;entryDy=0;exitPerimeter=0;" edge="1" parent="1" source="vzcYkedEycCVn6IqwDVd-24" target="vzcYkedEycCVn6IqwDVd-7">
          <mxGeometry width="50" height="50" relative="1" as="geometry">
            <mxPoint x="420" y="220" as="sourcePoint" />
            <mxPoint x="470" y="170" as="targetPoint" />
          </mxGeometry>
        </mxCell>
        <mxCell id="vzcYkedEycCVn6IqwDVd-29" value="&amp;lt;&amp;lt;extend&amp;gt;&amp;gt;" style="edgeLabel;html=1;align=center;verticalAlign=middle;resizable=0;points=[];" vertex="1" connectable="0" parent="vzcYkedEycCVn6IqwDVd-28">
          <mxGeometry x="-0.1287" y="2" relative="1" as="geometry">
            <mxPoint y="1" as="offset" />
          </mxGeometry>
        </mxCell>
        <mxCell id="vzcYkedEycCVn6IqwDVd-30" value="" style="endArrow=none;html=1;rounded=0;exitX=0;exitY=0;exitDx=0;exitDy=0;entryX=1;entryY=0.5;entryDx=0;entryDy=0;" edge="1" parent="1" source="vzcYkedEycCVn6IqwDVd-7" target="vzcYkedEycCVn6IqwDVd-26">
          <mxGeometry width="50" height="50" relative="1" as="geometry">
            <mxPoint x="420" y="220" as="sourcePoint" />
            <mxPoint x="470" y="170" as="targetPoint" />
          </mxGeometry>
        </mxCell>
        <mxCell id="vzcYkedEycCVn6IqwDVd-31" value="&amp;lt;&amp;lt;extend&amp;gt;&amp;gt;" style="edgeLabel;html=1;align=center;verticalAlign=middle;resizable=0;points=[];" vertex="1" connectable="0" parent="vzcYkedEycCVn6IqwDVd-30">
          <mxGeometry x="0.0359" y="-1" relative="1" as="geometry">
            <mxPoint as="offset" />
          </mxGeometry>
        </mxCell>
        <mxCell id="vzcYkedEycCVn6IqwDVd-33" value="Beleženje" style="ellipse;whiteSpace=wrap;html=1;" vertex="1" parent="1">
          <mxGeometry x="540" y="210" width="85" height="50" as="geometry" />
        </mxCell>
        <mxCell id="vzcYkedEycCVn6IqwDVd-37" value="" style="endArrow=none;html=1;rounded=0;entryX=0.247;entryY=0.12;entryDx=0;entryDy=0;exitX=1;exitY=0.5;exitDx=0;exitDy=0;entryPerimeter=0;" edge="1" parent="1" source="vzcYkedEycCVn6IqwDVd-7" target="vzcYkedEycCVn6IqwDVd-33">
          <mxGeometry width="50" height="50" relative="1" as="geometry">
            <mxPoint x="420" y="220" as="sourcePoint" />
            <mxPoint x="470" y="170" as="targetPoint" />
          </mxGeometry>
        </mxCell>
        <mxCell id="vzcYkedEycCVn6IqwDVd-38" value="&amp;lt;&amp;lt;zabeležke&amp;gt;&amp;gt;" style="edgeLabel;html=1;align=center;verticalAlign=middle;resizable=0;points=[];" vertex="1" connectable="0" parent="vzcYkedEycCVn6IqwDVd-37">
          <mxGeometry x="-0.28" y="1" relative="1" as="geometry">
            <mxPoint as="offset" />
          </mxGeometry>
        </mxCell>
        <mxCell id="vzcYkedEycCVn6IqwDVd-39" value="" style="endArrow=classic;html=1;rounded=0;exitX=1;exitY=0.3333333333333333;exitDx=0;exitDy=0;exitPerimeter=0;entryX=0;entryY=0.5;entryDx=0;entryDy=0;" edge="1" parent="1" source="vzcYkedEycCVn6IqwDVd-2" target="vzcYkedEycCVn6IqwDVd-26">
          <mxGeometry width="50" height="50" relative="1" as="geometry">
            <mxPoint x="80" y="130" as="sourcePoint" />
            <mxPoint x="450" y="75" as="targetPoint" />
          </mxGeometry>
        </mxCell>
        <mxCell id="vzcYkedEycCVn6IqwDVd-26" value="Pregled zvočnih posnetkov" style="ellipse;whiteSpace=wrap;html=1;" vertex="1" parent="1">
          <mxGeometry x="230" y="50" width="100" height="60" as="geometry" />
        </mxCell>
        <mxCell id="vzcYkedEycCVn6IqwDVd-41" value="" style="endArrow=classic;html=1;rounded=0;exitX=1;exitY=0.3333333333333333;exitDx=0;exitDy=0;exitPerimeter=0;entryX=0;entryY=0.5;entryDx=0;entryDy=0;" edge="1" parent="1" source="vzcYkedEycCVn6IqwDVd-4" target="vzcYkedEycCVn6IqwDVd-20">
          <mxGeometry width="50" height="50" relative="1" as="geometry">
            <mxPoint x="470" y="340" as="sourcePoint" />
            <mxPoint x="520" y="290" as="targetPoint" />
          </mxGeometry>
        </mxCell>
        <mxCell id="vzcYkedEycCVn6IqwDVd-42" value="" style="endArrow=classic;html=1;rounded=0;exitX=1;exitY=0.3333333333333333;exitDx=0;exitDy=0;exitPerimeter=0;entryX=0;entryY=0.5;entryDx=0;entryDy=0;" edge="1" parent="1" source="vzcYkedEycCVn6IqwDVd-4" target="vzcYkedEycCVn6IqwDVd-21">
          <mxGeometry width="50" height="50" relative="1" as="geometry">
            <mxPoint x="470" y="340" as="sourcePoint" />
            <mxPoint x="520" y="290" as="targetPoint" />
          </mxGeometry>
        </mxCell>
      </root>
    </mxGraphModel>
  </diagram>
</mxfile>
